HIERARCHY
ROOT Hips
{
	OFFSET 0.000000 0.000000 0.000000
	CHANNELS 6 Xposition Yposition Zposition Xrotation Yrotation Zrotation
	JOINT LeftUpLeg_virtual
	{
		OFFSET 0.000000 0.000000 0.000000
		CHANNELS 3 Xrotation Yrotation Zrotation
		JOINT LeftUpLeg
		{
			OFFSET 10.205400 -3.823500 0.155100
			CHANNELS 3 Xrotation Yrotation Zrotation
			JOINT LeftLeg
			{
				OFFSET 0.708757 -12.982077 0.567790
				CHANNELS 3 Xrotation Yrotation Zrotation
				JOINT LeftFoot
				{
					OFFSET -0.708756 -10.717838 -2.184338
					CHANNELS 3 Xrotation Yrotation Zrotation
					JOINT LeftToeBase
					{
						OFFSET 0.108149 -7.191104 7.560241
						CHANNELS 3 Xrotation Yrotation Zrotation
						JOINT LeftToe_End
						{
							OFFSET 0.070230 0.081724 4.490308
							CHANNELS 3 Xrotation Yrotation Zrotation
							End Site
							{
								OFFSET 0 0 0
							}
						}
					}
				}
			}
		}
	}
	JOINT RightUpLeg_virtual
	{
		OFFSET 0.000000 0.000000 0.000000
		CHANNELS 3 Xrotation Yrotation Zrotation
		JOINT RightUpLeg
		{
			OFFSET -10.205400 -3.823500 0.005500
			CHANNELS 3 Xrotation Yrotation Zrotation
			JOINT RightLeg
			{
				OFFSET -0.708756 -12.982134 0.610632
				CHANNELS 3 Xrotation Yrotation Zrotation
				JOINT RightFoot
				{
					OFFSET 0.708754 -10.717769 -1.945823
					CHANNELS 3 Xrotation Yrotation Zrotation
					JOINT RightToeBase
					{
						OFFSET -0.108140 -7.191069 7.372968
						CHANNELS 3 Xrotation Yrotation Zrotation
						JOINT RightToe_End
						{
							OFFSET -0.070227 0.081735 4.479403
							CHANNELS 3 Xrotation Yrotation Zrotation
							End Site
							{
								OFFSET 0 0 0
							}
						}
					}
				}
			}
		}
	}
	JOINT Spine_virtual
	{
		OFFSET 0.000000 0.000000 0.000000
		CHANNELS 3 Xrotation Yrotation Zrotation
		JOINT Spine
		{
			OFFSET 0.000000 6.876099 0.125700
			CHANNELS 3 Xrotation Yrotation Zrotation
			JOINT Spine1
			{
				OFFSET 0.000000 5.730043 0.104720
				CHANNELS 3 Xrotation Yrotation Zrotation
				JOINT Spine1_split
				{
					OFFSET 0.000000 5.730043 0.104720
					CHANNELS 3 Xrotation Yrotation Zrotation
					JOINT Spine2
					{
						OFFSET 0.000000 5.730043 0.104720
						CHANNELS 3 Xrotation Yrotation Zrotation
						JOINT Neck_virtual
						{
							OFFSET 0.000000 0.000000 0.000000
							CHANNELS 3 Xrotation Yrotation Zrotation
							JOINT Neck
							{
								OFFSET 0.000000 10.314075 0.188496
								CHANNELS 3 Xrotation Yrotation Zrotation
								JOINT Head
								{
									OFFSET 0.000000 7.643700 -2.377400
									CHANNELS 3 Xrotation Yrotation Zrotation
									JOINT HeadTop_End
									{
										OFFSET 0.000000 43.788605 -13.619600
										CHANNELS 3 Xrotation Yrotation Zrotation
										End Site
										{
											OFFSET 0 0 0
										}
									}
								}
							}
						}
						JOINT LeftShoulder_virtual
						{
							OFFSET 0.000000 0.000000 0.000000
							CHANNELS 3 Xrotation Yrotation Zrotation
							JOINT LeftShoulder
							{
								OFFSET 2.196100 4.412489 0.087492
								CHANNELS 3 Xrotation Yrotation Zrotation
								JOINT LeftShoulder_split
								{
									OFFSET 2.196100 4.412489 0.087492
									CHANNELS 3 Xrotation Yrotation Zrotation
									JOINT LeftArm
									{
										OFFSET 8.771219 -2.981674 -0.026999
										CHANNELS 3 Xrotation Yrotation Zrotation
										JOINT LeftForeArm
										{
											OFFSET 8.512804 0.000000 -0.000000
											CHANNELS 3 Xrotation Yrotation Zrotation
											JOINT LeftHand
											{
												OFFSET 18.484802 0.000000 -0.000000
												CHANNELS 3 Xrotation Yrotation Zrotation
												End Site
												{
													OFFSET 0 0 0
												}
											}
										}
									}
								}
							}
						}
						JOINT RightShoulder_virtual
						{
							OFFSET 0.000000 0.000000 0.000000
							CHANNELS 3 Xrotation Yrotation Zrotation
							JOINT RightShoulder
							{
								OFFSET -2.196100 4.412496 0.070690
								CHANNELS 3 Xrotation Yrotation Zrotation
								JOINT RightShoulder_split
								{
									OFFSET -2.196100 4.412496 0.070690
									CHANNELS 3 Xrotation Yrotation Zrotation
									JOINT RightArm
									{
										OFFSET -8.771282 -2.981682 -0.094208
										CHANNELS 3 Xrotation Yrotation Zrotation
										JOINT RightForeArm
										{
											OFFSET -8.494598 0.000000 0.000000
											CHANNELS 3 Xrotation Yrotation Zrotation
											JOINT RightHand
											{
												OFFSET -18.483803 0.000000 0.000001
												CHANNELS 3 Xrotation Yrotation Zrotation
												End Site
												{
													OFFSET 0 0 0
												}
											}
										}
									}
								}
							}
						}
					}
				}
			}
		}
	}
}
MOTION
Frames: 10
Frame Time: 0.03333333
-0.144602 32.734707 -0.309657 0.000000 0.000000 0.000000 -41.372040 -80.651762 -43.282782 -20.349164 12.451470 16.986549 37.112489 -4.904604 6.843659 -15.906139 4.609582 -11.943288 1.735019 0.086503 -0.074339 0.000000 0.000000 0.000000 -44.831367 -84.196807 -45.554486 -11.483787 -21.686658 -11.215977 31.061409 9.715218 -7.595932 -18.151861 -4.448442 12.898770 -2.816394 0.037152 -0.731222 0.000000 0.000000 0.000000 -15.664388 -82.546757 -17.896103 0.625288 0.512199 -0.364593 4.223408 0.317411 1.559365 -0.539738 -1.003743 0.163077 0.000000 0.000000 0.000000 4.290833 0.135027 1.391005 -6.338634 8.404343 -4.431092 -7.633006 38.778560 -2.020681 0.000000 0.000000 0.000000 5.567073 0.619386 1.729435 -1.110661 5.306032 -1.882807 0.021482 2.634157 2.401290 8.176148 -77.187100 -55.506973 -0.368397 -12.912520 0.328430 0.000000 0.000000 0.000000 5.169961 0.510143 1.610687 1.622026 5.003962 6.778623 1.888179 -0.630759 -1.930942 8.365547 22.278294 60.280927 0.834358 63.640902 -0.529315 0.000000 0.000000 0.000000 
-0.152637 32.745354 -0.330825 0.000000 0.000000 0.000000 -41.642950 -80.785183 -43.622478 -20.492128 12.444233 17.007851 37.321649 -4.894782 6.982152 -15.922324 4.557914 -12.015255 1.546007 0.084761 -0.027150 0.000000 0.000000 0.000000 -44.781773 -84.257036 -45.467917 -11.484975 -21.700131 -11.278152 31.101714 9.756848 -7.544053 -18.070304 -4.535806 12.981925 -2.766975 0.036838 -0.758626 0.000000 0.000000 0.000000 -15.342113 -82.421149 -17.562158 0.617331 0.539346 -0.322387 4.177711 0.277730 1.580614 -0.529808 -1.063925 0.161925 0.000000 0.000000 0.000000 4.273631 0.115622 1.421105 -6.338909 8.437217 -4.467282 -7.774513 38.895298 -1.973678 0.000000 0.000000 0.000000 5.522240 0.600606 1.777515 -1.061426 5.295144 -1.942865 -0.228983 2.439726 2.494628 8.769198 -76.952640 -55.084963 -0.267250 -13.222391 0.386115 0.000000 0.000000 0.000000 5.142135 0.510596 1.597181 1.590938 5.070174 6.752041 2.090022 -0.517293 -1.950264 8.075251 22.335938 60.291371 0.834358 63.640902 -0.529315 0.000000 0.000000 0.000000 
-0.154039 32.759144 -0.349127 0.000000 0.000000 0.000000 -41.528465 -80.889691 -43.540998 -20.653085 12.258787 16.965970 37.546998 -4.923767 7.122182 -15.749983 4.486693 -12.071728 1.208793 0.088187 -0.193128 0.000000 0.000000 0.000000 -43.467259 -84.257070 -44.189487 -11.494637 -21.639375 -11.369908 31.029181 9.772248 -7.573506 -17.848825 -4.638533 13.218797 -2.717222 0.039732 -0.805483 0.000000 0.000000 0.000000 -15.143383 -82.267846 -17.384501 0.603724 0.578979 -0.239043 4.162703 0.183527 1.617715 -0.518641 -1.082285 0.108791 0.000000 0.000000 0.000000 4.295015 0.065211 1.474500 -6.301789 8.522358 -4.538504 -7.921679 39.209944 -1.870968 0.000000 0.000000 0.000000 5.476832 0.534192 1.838717 -0.978427 5.335728 -2.093208 -0.567629 2.254457 2.489395 11.802591 -77.068385 -52.229125 -0.096550 -13.651910 0.484766 0.000000 0.000000 0.000000 5.098977 0.484197 1.613531 1.564533 5.194266 6.659801 2.298684 -0.442183 -1.960836 7.992998 22.441321 60.292204 0.834358 63.640902 -0.529315 0.000000 0.000000 0.000000 
-0.143529 32.763760 -0.361718 0.000000 0.000000 0.000000 -41.268061 -80.953499 -43.261619 -20.760300 12.049814 16.858912 37.672598 -4.945719 7.245810 -15.473493 4.438584 -12.056993 0.778557 0.079643 -0.437687 0.000000 0.000000 0.000000 -41.602262 -84.214463 -42.402030 -11.561820 -21.507144 -11.404116 30.971851 9.730663 -7.670555 -17.657096 -4.763659 13.573353 -2.725482 0.036293 -0.820245 0.000000 0.000000 0.000000 -15.230864 -82.200842 -17.521498 0.600462 0.606398 -0.147857 4.188157 0.080106 1.681294 -0.485188 -1.066921 0.038394 0.000000 0.000000 0.000000 4.352701 0.014591 1.548556 -6.254446 8.639337 -4.613872 -7.992193 39.581861 -1.799198 0.000000 0.000000 0.000000 5.437019 0.465534 1.915814 -0.903747 5.464104 -2.257289 -0.868654 2.237151 2.385455 16.629334 -77.608878 -47.481477 0.115381 -13.888759 0.610962 0.000000 0.000000 0.000000 5.065595 0.459107 1.649641 1.551679 5.339879 6.541093 2.427581 -0.340340 -1.944415 8.168491 22.327827 60.255130 0.834358 63.640902 -0.529315 0.000000 0.000000 0.000000 
-0.112176 32.766315 -0.364349 0.000000 0.000000 0.000000 -41.425326 -81.011849 -43.330249 -20.687962 12.065908 16.707459 37.615238 -4.941054 7.390311 -15.241108 4.429031 -11.921249 0.358616 0.055580 -0.550261 0.000000 0.000000 0.000000 -40.320714 -84.236901 -41.158662 -11.775673 -21.298726 -11.352382 31.056945 9.623760 -7.872392 -17.581919 -4.873034 13.948588 -2.799555 0.025235 -0.774471 0.000000 0.000000 0.000000 -15.471425 -82.252273 -17.805690 0.611025 0.636305 -0.099831 4.243834 0.036419 1.757229 -0.428760 -1.072403 -0.027711 0.000000 0.000000 0.000000 4.432210 0.011029 1.628115 -6.242050 8.763781 -4.667448 -7.947485 39.858102 -1.802243 0.000000 0.000000 0.000000 5.396037 0.444757 1.991986 -0.876953 5.658912 -2.327013 -1.089538 2.320600 2.282704 22.251009 -78.522812 -41.770432 0.326510 -13.781969 0.731536 0.000000 0.000000 0.000000 5.067086 0.482051 1.683009 1.548854 5.486511 6.463351 2.485149 -0.125779 -1.902397 8.594308 21.781774 60.191780 0.834358 63.640902 -0.529315 0.000000 0.000000 0.000000 
-0.054089 32.778545 -0.360114 0.000000 0.000000 0.000000 -42.104974 -81.134615 -43.903425 -20.470712 12.412024 16.493467 37.309731 -4.919917 7.576848 -15.147381 4.422979 -11.714372 0.155177 0.031261 -0.392644 0.000000 0.000000 0.000000 -40.247655 -84.397902 -41.104236 -12.240344 -21.030916 -11.183540 31.365410 9.462086 -8.214091 -17.653201 -4.957675 14.152293 -2.899119 0.011470 -0.684467 0.000000 0.000000 0.000000 -16.059037 -82.445943 -18.371254 0.647951 0.678542 -0.135191 4.311796 0.116790 1.820096 -0.369397 -1.114951 -0.061040 0.000000 0.000000 0.000000 4.526461 0.096284 1.678712 -6.304397 8.869635 -4.683837 -7.870326 39.900596 -1.885908 0.000000 0.000000 0.000000 5.367325 0.520401 2.036032 -0.923648 5.878083 -2.222465 -1.170342 2.417734 2.126005 27.544814 -79.521652 -36.171715 0.518341 -13.511695 0.805043 0.000000 0.000000 0.000000 5.130652 0.592189 1.687160 1.556361 5.609178 6.474355 2.397699 0.249040 -1.812463 9.140913 20.652634 60.085529 0.834358 63.640902 -0.529315 0.000000 0.000000 0.000000 
0.030867 32.797863 -0.376851 0.000000 0.000000 0.000000 -43.312272 -81.404606 -44.974893 -20.232912 13.060060 16.242675 36.822895 -4.871764 7.832729 -15.227745 4.418209 -11.648380 0.351935 0.007778 -0.049426 0.000000 0.000000 0.000000 -42.232805 -84.782298 -43.046868 -13.012495 -20.633395 -10.920563 31.984253 9.257165 -8.758033 -17.733821 -5.026598 14.074380 -2.955342 -0.001582 -0.580425 0.000000 0.000000 0.000000 -17.205375 -82.831712 -19.411355 0.711132 0.738920 -0.271749 4.407542 0.337676 1.831690 -0.312214 -1.184547 -0.090968 0.000000 0.000000 0.000000 4.653108 0.285178 1.655809 -6.446194 8.933513 -4.664179 -7.945302 39.782922 -2.006202 0.000000 0.000000 0.000000 5.391709 0.681979 2.009079 -1.005420 6.057492 -1.964713 -1.077573 2.386980 2.045272 31.158783 -80.091106 -32.053159 0.660757 -13.712904 0.813370 0.000000 0.000000 0.000000 5.278154 0.780485 1.621128 1.561638 5.696293 6.589233 2.163351 0.796303 -1.771417 9.657659 19.095933 59.958256 0.834358 63.640902 -0.529315 0.000000 0.000000 0.000000 
0.149730 32.812862 -0.418569 0.000000 0.000000 0.000000 -45.536571 -81.816739 -47.038707 -20.131622 13.812102 15.989966 36.358996 -4.734777 8.219892 -15.292806 4.366173 -11.874550 0.961138 0.023173 0.210404 0.000000 0.000000 0.000000 -46.043733 -85.281127 -46.762747 -14.083104 -20.072630 -10.628129 32.922967 9.109228 -9.465969 -17.696233 -5.044172 13.576375 -2.910908 -0.003526 -0.505900 0.000000 0.000000 0.000000 -19.546050 -83.443151 -21.570554 0.807032 0.806033 -0.510792 4.561106 0.666677 1.746992 -0.303039 -1.240366 -0.145906 0.000000 0.000000 0.000000 4.849652 0.552759 1.528684 -6.655008 8.945689 -4.625350 -8.382386 39.546341 -2.082887 0.000000 0.000000 0.000000 5.525982 0.905191 1.870299 -1.068486 6.144292 -1.642362 -0.913665 2.323522 2.041925 31.212312 -79.516393 -31.389384 0.735257 -15.299243 0.735375 0.000000 0.000000 0.000000 5.515419 1.016825 1.467597 1.544297 5.723171 6.816572 1.748684 1.406846 -1.806926 10.039851 17.491592 59.749013 0.834358 63.640902 -0.529315 0.000000 0.000000 0.000000 
0.303691 32.806656 -0.505808 0.000000 0.000000 0.000000 -49.133475 -82.357301 -50.508986 -20.405054 14.326583 15.750664 36.306045 -4.302918 8.783854 -15.115603 4.316111 -12.407875 1.513479 0.069442 0.104340 0.000000 0.000000 0.000000 -52.634957 -85.828615 -53.249770 -15.519259 -19.400290 -10.340262 34.292269 9.112199 -10.178302 -17.637365 -5.030482 12.704755 -2.802349 0.007754 -0.469489 0.000000 0.000000 0.000000 -23.139699 -84.134755 -24.939030 0.964194 0.854569 -0.826530 4.821383 1.002684 1.558605 -0.352672 -1.258574 -0.202574 0.000000 0.000000 0.000000 5.171606 0.813258 1.296356 -6.915255 8.904377 -4.584087 -9.285310 39.265170 -2.061204 0.000000 0.000000 0.000000 5.837975 1.128968 1.608265 -1.090140 6.132944 -1.308531 -0.801694 2.283682 2.071234 27.979873 -77.345520 -33.965226 0.749674 -18.891741 0.570674 0.000000 0.000000 0.000000 5.856147 1.224087 1.238106 1.508094 5.667080 7.125273 1.192592 1.973413 -1.857364 10.225934 16.276001 59.298596 0.834358 63.640902 -0.529315 0.000000 0.000000 0.000000 
0.482584 32.736881 -0.650482 0.000000 0.000000 0.000000 -54.543480 -83.009024 -55.751730 -21.253302 14.266418 15.495391 37.117840 -3.352527 9.549205 -14.493472 4.347294 -13.128754 1.146603 0.117716 -0.293567 0.000000 0.000000 0.000000 -61.701989 -86.245789 -62.112784 -17.320931 -18.728461 -10.182210 36.386590 9.343583 -10.767156 -17.739975 -4.915037 11.596813 -2.720414 0.029571 -0.437219 0.000000 0.000000 0.000000 -28.106548 -84.811743 -29.663563 1.201233 0.843181 -1.145471 5.266214 1.210484 1.281410 -0.448931 -1.267717 -0.250617 0.000000 0.000000 0.000000 5.675352 0.952735 0.987247 -7.200246 8.834365 -4.561307 -10.571582 39.058259 -1.931466 0.000000 0.000000 0.000000 6.362863 1.259121 1.246953 -1.054002 6.049465 -0.906753 -0.772895 2.406983 2.125623 24.150381 -73.629665 -37.119431 0.722091 -24.701027 0.383554 0.000000 0.000000 0.000000 6.309489 1.310781 0.957362 1.454769 5.485792 7.453437 0.544374 2.422692 -1.919439 10.296475 15.913313 58.539557 0.834358 63.640902 -0.529315 0.000000 0.000000 0.000000 
